# xmcd
#
# Track frame offsets:
#	150
#	17533
#	30657
#	44542
#	60766
#	79131
#	95528
#	108468
#	127400
#	142455
#	156789
#	171822
#	190909
#	212391
#	226198
#	243380
#
# Disc length: 3408 seconds
#
# Revision: 0
# Processed by: cddbd v1.4PL0 Copyright (c) Steve Scherf et al.
# Submitted via: dBpowerAMP V4.0
#
DISCID=d70d4e10
DTITLE=พัชรา แวงวรรณ - แอบช้ำ กล้ำกลืน ขื่นขม
DYEAR=1900
DGENRE=
TTITLE0=แอบช้ำ
TTITLE1=กล้ำกลืน
TTITLE2=ขื่นขม
TTITLE3=สาปแล้วคนใจดำ
TTITLE4=ลืมเสียเถิด
TTITLE5=เจ็บช้ำ
TTITLE6=เราจะโทษใคร
TTITLE7=หัวใจที่ว่างเปล่า
TTITLE8=โง่รัก
TTITLE9=รักไม่เป็นใจ
TTITLE10=ลืมฉันเถิด
TTITLE11=บาดตาตำใจ
TTITLE12=ประท้วงใจ
TTITLE13=ใครคนหนึ่งถึงใครอีกคน
TTITLE14=เข็ดแล้วพอแล้ว
TTITLE15=คนไม่รู้จักพอ
EXTD=Pop
EXTT0=
EXTT1=
EXTT2=
EXTT3=
EXTT4=
EXTT5=
EXTT6=
EXTT7=
EXTT8=
EXTT9=
EXTT10=
EXTT11=
EXTT12=
EXTT13=
EXTT14=
EXTT15=
PLAYORDER=
